<svg xmlns="http://www.w3.org/2000/svg" width="117" height="24" fill="none"><path fill="#fff" fill-opacity=".88" fill-rule="evenodd" d="M57.719 19.268V7.438h3.14v11.83h-3.14Zm-.443-15.212c0-1.128.907-1.968 2.013-1.968 1.105 0 2.012.84 2.012 1.968 0 1.105-.907 1.946-2.012 1.946-1.106 0-2.013-.84-2.013-1.946Zm40.906 9.043c0 4.002 2.388 6.346 6.301 6.346 3.892 0 6.302-2.344 6.302-6.346V3.79h-3.339v9.199c0 2.189-1.172 3.338-2.963 3.338-1.791 0-2.962-1.15-2.962-3.338V3.79h-3.34v9.31Zm14.53-9.309v15.478h3.339V3.79h-3.339ZM81.914 19.268V7.438h3.073v1.748c.819-1.217 2.278-1.924 3.892-1.924 2.477 0 4.223 1.658 4.223 4.599v7.407h-3.14v-6.456c0-1.791-.862-2.676-2.277-2.676-1.504 0-2.631 1.04-2.631 2.963v6.17h-3.14Zm-18.911.553C63.246 22.32 65.5 24 68.84 24c3.781 0 6.08-2.145 6.08-5.35V7.438h-3.073v1.658c-.73-1.15-2.056-1.835-3.67-1.835-2.985 0-5.373 2.41-5.373 5.815 0 3.427 2.388 5.838 5.373 5.838 1.592 0 2.918-.686 3.648-1.791v1.525c0 1.703-1.106 2.764-2.874 2.764-1.371 0-2.388-.641-2.676-1.592h-3.272Zm5.925-3.67c-1.702 0-2.94-1.26-2.94-3.074 0-1.813 1.238-3.051 2.94-3.051 1.703 0 2.92 1.238 2.92 3.051 0 1.813-1.217 3.074-2.92 3.074Zm7.901-8.712v11.83h3.14V7.438h-3.14Zm1.57-5.351c-1.106 0-2.012.84-2.012 1.968 0 1.105.906 1.946 2.012 1.946 1.105 0 2.012-.84 2.012-1.946 0-1.128-.907-1.968-2.012-1.968Zm-30.125 17.18V7.438h3.073v2.057c.641-1.327 1.968-2.056 3.494-2.056h.972v2.874h-1.06c-2.212 0-3.34 1.128-3.34 3.45v5.505h-3.14ZM30.743 11.53c0 4.688 3.427 7.916 7.827 7.916 4.422 0 7.827-3.228 7.827-7.916 0-4.687-3.405-7.915-7.827-7.915-4.4 0-7.827 3.228-7.827 7.915Zm7.827 4.843c-2.543 0-4.4-1.924-4.4-4.843 0-2.918 1.857-4.842 4.4-4.842s4.422 1.924 4.422 4.842c0 2.919-1.88 4.843-4.422 4.843Z" clip-rule="evenodd"/><path fill="url(#a)" fill-rule="evenodd" d="M11.371 22.743c6.28 0 11.372-5.091 11.372-11.372C22.743 5.091 17.652 0 11.37 0 5.091 0 0 5.091 0 11.371s5.091 11.372 11.371 11.372Zm0-5.825a5.547 5.547 0 1 0 0-11.094 5.547 5.547 0 0 0 0 11.094Z" clip-rule="evenodd"/><defs><linearGradient id="a" x1="11.371" x2="11.371" y1="-9.239" y2="22.743" gradientUnits="userSpaceOnUse"><stop stop-color="#F4F4F5"/><stop offset=".506" stop-color="#A1A1AA" stop-opacity=".8"/><stop offset="1" stop-color="#3F3F46" stop-opacity=".8"/></linearGradient></defs></svg>